<?xml version="1.0" standalone="no"?>
<!DOCTYPE svg PUBLIC "-//W3C//DTD SVG 20010904//EN"
 "http://www.w3.org/TR/2001/REC-SVG-20010904/DTD/svg10.dtd">
<svg version="1.0" xmlns="http://www.w3.org/2000/svg"
 width="260.000000pt" height="260.000000pt" viewBox="0 0 260.000000 260.000000"
 preserveAspectRatio="xMidYMid meet">
<metadata>
Created by potrace 1.14, written by Peter Selinger 2001-2017
</metadata>
<g transform="translate(0.000000,260.000000) scale(0.100000,-0.100000)"
fill="#000000" stroke="none">
<path d="M907 2316 c-52 -19 -126 -83 -161 -139 -47 -76 -45 -178 4 -222 11
-10 20 -22 20 -27 0 -4 -101 -8 -225 -8 -208 0 -225 -1 -225 -17 0 -10 14
-153 30 -317 16 -164 28 -302 26 -305 -2 -3 7 -98 20 -211 13 -113 37 -344 55
-515 17 -171 34 -312 36 -315 6 -6 271 -14 948 -29 275 -6 536 -12 580 -13
l79 -3 22 235 c13 129 37 379 54 555 48 508 80 854 80 879 0 18 -9 27 -40 40
-33 13 -81 16 -250 16 -116 0 -210 4 -210 9 0 5 7 14 16 22 47 39 59 141 23
210 -27 55 -100 126 -152 149 -115 53 -238 8 -350 -128 l-27 -34 -27 34 c-43
50 -84 87 -130 115 -53 31 -141 40 -196 19z m141 -184 c14 -9 45 -44 70 -77
l44 -60 -35 -3 c-79 -7 -230 39 -243 73 -13 32 74 100 115 90 12 -3 35 -13 49
-23z m563 -12 c41 -39 42 -40 24 -60 -34 -38 -265 -90 -265 -60 0 21 71 110
108 135 53 36 83 32 133 -15z m-980 -220 c84 0 87 -1 86 -22 0 -13 3 -65 8
-117 l8 -93 -162 3 -161 4 -11 40 c-6 22 -20 67 -30 100 -32 102 -34 99 79 92
53 -4 136 -7 183 -7z m508 -25 c9 -9 29 -180 22 -186 -3 -4 -71 -8 -151 -10
l-145 -4 -27 100 c-15 55 -27 104 -28 109 0 9 319 0 329 -9z m888 -18 c-2 -7
-15 -59 -28 -116 l-23 -103 -35 6 c-20 3 -80 8 -133 12 l-98 7 0 87 0 88 103
11 c56 7 109 14 117 15 8 2 35 4 59 5 31 1 42 -3 38 -12z m-427 -11 c0 -2 -8
-23 -19 -47 -10 -24 -26 -65 -35 -91 l-17 -46 -57 -6 c-31 -3 -87 -8 -124 -11
l-68 -7 0 101 0 100 108 4 c59 1 131 4 160 5 28 1 52 0 52 -2z m-819 -343 c-5
-128 2 -123 -149 -123 -70 0 -144 -3 -166 -7 l-39 -6 7 49 c4 27 12 70 17 95
l10 46 137 15 c75 8 148 16 162 17 l25 1 -4 -87z m642 71 c62 -3 117 -7 123
-9 17 -5 -19 -190 -37 -188 -8 1 -60 7 -116 13 l-101 12 -21 84 c-27 108 -27
108 10 100 16 -3 80 -8 142 -12z m-294 -4 l44 0 -6 -86 c-3 -48 -9 -89 -12
-92 -5 -6 -248 -43 -252 -38 -1 1 -6 53 -9 116 l-7 113 99 -6 c54 -4 119 -7
143 -7z m849 -92 l-3 -92 -105 -18 c-58 -9 -120 -20 -138 -23 l-33 -6 3 103 3
103 110 11 c61 6 123 12 138 13 l28 1 -3 -92z m-1158 -195 c0 -5 -11 -48 -23
-98 l-23 -90 -142 -3 c-109 -2 -143 0 -146 10 -3 7 -7 45 -10 85 l-5 72 42 5
c185 22 307 29 307 19z m371 -12 c3 -3 4 -43 1 -89 -4 -74 -6 -83 -26 -87 -35
-7 -228 -27 -230 -23 -2 2 -13 44 -25 93 -12 50 -24 98 -27 109 -6 17 1 18
148 11 84 -4 156 -10 159 -14z m385 -13 c-6 -33 -26 -186 -26 -194 0 -6 -139
-5 -206 2 l-59 6 3 77 c5 101 11 111 70 112 37 0 118 11 215 28 4 0 6 -14 3
-31z m394 -87 l0 -89 -72 -6 c-40 -4 -100 -8 -133 -9 l-60 -2 -6 85 c-4 47 -6
86 -5 87 4 5 164 20 219 22 l57 1 0 -89z m-1257 -182 c93 -11 98 -13 94 -33
-3 -11 -9 -51 -12 -88 l-7 -66 -77 -7 c-42 -3 -91 -7 -108 -10 -28 -3 -34 0
-37 18 -2 12 -11 58 -20 102 -22 112 -23 108 27 102 23 -4 86 -11 140 -18z
m745 11 l112 0 0 -115 0 -115 -69 0 c-37 0 -95 3 -128 6 l-60 7 -22 101 c-28
134 -29 130 17 122 20 -3 88 -6 150 -6z m-283 -107 l-21 -98 -40 -6 c-21 -4
-69 -9 -106 -11 -79 -5 -77 -8 -70 109 l4 81 87 7 c47 4 91 8 96 10 6 2 24 4
41 4 l31 1 -22 -97z m754 6 c17 -45 34 -92 37 -105 l6 -24 -103 0 c-57 0 -121
-3 -141 -6 -43 -7 -46 1 -28 78 5 24 12 64 16 91 l5 47 89 0 88 0 31 -81z
m-1158 -200 c14 -24 62 -149 58 -153 -2 -3 -60 -6 -129 -7 l-125 -2 -22 74
c-37 119 -42 113 94 106 72 -4 119 -11 124 -18z m427 -4 c4 -3 -35 -145 -40
-150 -2 -1 -58 -5 -125 -7 l-122 -5 -5 36 c-3 20 -8 60 -12 90 l-6 53 153 -7
c85 -4 155 -9 157 -10z m382 13 c0 -2 -11 -39 -24 -83 l-23 -80 -37 1 c-20 0
-73 1 -117 2 l-82 2 7 67 c4 37 8 68 9 70 9 8 268 28 267 21z m376 -45 c-3
-21 -6 -60 -6 -86 l0 -48 -150 2 c-82 2 -150 6 -150 9 0 3 11 37 23 76 l24 69
74 6 c41 3 100 6 133 7 l59 2 -7 -37z m-20 -245 c-4 -29 -9 -70 -12 -90 l-6
-37 -121 -3 c-67 -2 -123 -2 -125 -2 -3 2 35 154 40 159 4 4 152 22 196 24
l34 1 -6 -52z m-1117 -35 c11 -42 19 -78 17 -80 -3 -4 -279 -21 -284 -18 -3 3
17 144 23 163 3 8 35 12 114 12 l109 0 21 -77z m317 57 l74 0 0 -74 0 -74
-127 -4 c-71 -2 -129 -3 -130 -3 -1 0 -5 35 -9 77 -8 87 -5 90 75 82 24 -2 77
-4 117 -4z m454 -44 c0 -29 3 -68 7 -86 l6 -33 -154 7 c-85 4 -156 9 -157 11
-2 2 2 37 9 79 l12 76 138 0 139 0 0 -54z"/>
<path d="M542 1838 c-16 -16 -15 -29 2 -22 11 4 16 -6 19 -43 3 -44 4 -43 5
15 2 62 -3 73 -26 50z"/>
<path d="M982 1838 c-19 -19 -14 -33 6 -16 19 17 42 13 42 -7 0 -8 -13 -28
-30 -45 -39 -40 -38 -50 8 -49 30 2 32 3 10 6 -34 5 -35 13 -3 41 28 25 33 67
9 76 -22 8 -28 8 -42 -6z"/>
<path d="M1848 1803 c-16 -19 -38 -58 -38 -67 0 -3 14 -6 30 -6 24 0 30 -4 31
-22 l0 -23 9 23 c5 12 15 22 22 22 8 0 6 5 -4 11 -10 5 -15 16 -12 24 4 8 1
15 -5 15 -6 0 -11 -9 -11 -20 0 -13 -7 -20 -20 -20 -25 0 -25 5 1 46 22 37 21
44 -3 17z"/>
<path d="M1386 1795 c-8 -22 -8 -25 4 -25 6 0 10 7 10 16 0 21 34 14 38 -9 2
-11 -3 -17 -15 -17 -17 -1 -17 -1 0 -14 9 -7 17 -21 17 -30 0 -25 -45 -20 -58
7 l-12 22 3 -25 c2 -21 8 -26 36 -28 36 -4 55 12 45 38 -4 8 -7 29 -8 45 -1
24 -6 31 -27 33 -17 2 -29 -3 -33 -13z"/>
<path d="M580 1506 c0 -19 6 -25 28 -28 21 -2 27 -8 27 -28 0 -31 -31 -39 -52
-13 -14 17 -14 17 -9 0 3 -10 6 -21 6 -23 0 -2 13 -4 30 -4 19 0 33 7 40 20
15 28 -4 60 -35 60 -38 0 -31 28 8 33 31 4 31 4 -5 5 -34 2 -38 -1 -38 -22z"/>
<path d="M1394 1542 c34 -8 42 -24 24 -43 -12 -13 -22 -79 -11 -79 2 0 9 14
14 30 6 17 14 30 19 30 4 0 5 15 1 33 -6 28 -11 32 -41 34 -33 1 -34 1 -6 -5z"/>
<path d="M1017 1522 c-21 -23 -22 -85 -2 -102 23 -19 65 -4 65 24 0 30 -23 49
-50 41 -24 -8 -26 7 -5 29 16 16 45 12 45 -7 0 -6 3 -7 6 -4 9 9 -15 37 -31
37 -6 0 -19 -8 -28 -18z m53 -73 c0 -27 -28 -35 -48 -15 -16 16 -16 18 1 31
24 17 47 9 47 -16z"/>
<path d="M1827 1524 c-4 -4 -7 -16 -7 -26 0 -10 -6 -27 -12 -38 -18 -28 1 -55
37 -55 36 0 53 26 38 57 -7 13 -13 32 -15 43 -3 20 -28 31 -41 19z m28 -34
c-5 -8 -11 -8 -17 -2 -6 6 -7 16 -3 22 5 8 11 8 17 2 6 -6 7 -16 3 -22z m20
-44 c0 -30 -31 -44 -51 -24 -24 24 -11 50 23 46 20 -2 28 -9 28 -22z"/>
<path d="M612 1238 c-31 -31 0 -75 44 -64 26 7 27 6 12 -15 -19 -30 -32 -33
-52 -14 -9 9 -16 13 -16 8 0 -15 23 -33 41 -33 23 0 49 38 49 71 0 45 -50 75
-78 47z m46 -7 c20 -12 10 -46 -14 -49 -25 -4 -40 24 -23 44 13 16 19 17 37 5z"/>
<path d="M984 1228 c-16 -18 -17 -21 -2 -15 14 5 18 -2 21 -41 3 -42 4 -40 5
16 1 34 0 62 -1 62 -2 0 -12 -10 -23 -22z"/>
<path d="M1069 1240 c-22 -13 -31 -53 -19 -84 7 -20 17 -26 38 -26 15 0 33 5
40 12 19 19 14 66 -8 88 -22 22 -28 23 -51 10z m52 -31 c16 -31 -4 -71 -34
-67 -39 5 -37 88 2 88 11 0 25 -10 32 -21z"/>
<path d="M1384 1208 c-16 -18 -17 -21 -2 -15 14 5 18 -2 21 -41 3 -42 4 -40 5
16 1 34 0 62 -1 62 -2 0 -12 -10 -23 -22z"/>
<path d="M1461 1209 c-11 -19 -11 -21 2 -16 13 5 17 -4 20 -41 3 -42 4 -40 5
16 2 65 -5 76 -27 41z"/>
<path d="M1847 1224 c-4 -4 -7 -14 -7 -23 0 -12 3 -11 14 4 8 11 19 16 30 12
23 -9 20 -22 -14 -60 -40 -46 -38 -57 8 -56 30 2 32 3 10 6 -35 5 -35 13 -3
43 34 32 31 74 -5 78 -14 2 -29 0 -33 -4z"/>
<path d="M1769 1203 c-12 -15 -12 -16 3 -10 14 5 18 -2 21 -46 l3 -52 2 63 c2
64 -5 75 -29 45z"/>
<path d="M611 929 c-11 -19 -11 -21 2 -16 13 5 17 -4 20 -41 3 -42 4 -40 5 16
2 65 -5 76 -27 41z"/>
<path d="M697 944 c-4 -4 -7 -14 -7 -23 1 -14 2 -13 11 2 5 9 16 17 24 17 23
0 29 -22 11 -36 -16 -12 -16 -13 0 -22 23 -13 11 -42 -17 -42 -12 0 -23 8 -26
20 -3 11 -9 17 -14 14 -5 -3 -4 -14 2 -25 8 -15 19 -19 42 -17 32 3 32 3 32
58 0 51 -2 55 -25 58 -14 2 -29 0 -33 -4z"/>
<path d="M1372 938 c-14 -14 -16 -32 -2 -23 6 4 10 -12 10 -40 0 -28 4 -44 10
-40 11 7 12 71 2 98 -6 14 -10 15 -20 5z"/>
<path d="M1440 926 c0 -19 6 -25 28 -28 21 -2 27 -8 27 -28 0 -31 -33 -40 -53
-14 -13 18 -14 18 -10 -1 2 -15 11 -20 38 -20 33 0 35 2 35 35 0 31 -3 35 -27
38 -16 2 -28 9 -28 17 0 8 12 16 28 18 25 4 25 4 -5 6 -29 1 -33 -2 -33 -23z"/>
<path d="M992 928 c-15 -15 -16 -32 -2 -23 6 4 10 -12 10 -39 0 -25 5 -46 10
-46 6 0 10 27 10 60 0 60 -6 70 -28 48z"/>
<path d="M1070 910 c-26 -37 -20 -60 15 -60 17 0 25 -5 25 -17 0 -13 4 -11 13
7 7 14 10 27 6 30 -4 3 -9 14 -12 25 -4 18 -5 18 -6 -2 -1 -18 -7 -23 -27 -23
l-26 0 22 35 c27 43 19 46 -10 5z"/>
<path d="M1762 918 c-16 -16 -15 -29 2 -22 11 4 16 -6 19 -43 3 -44 4 -43 5
15 2 62 -3 73 -26 50z"/>
<path d="M1830 911 c-25 -47 -2 -106 40 -99 53 7 47 68 -6 68 -15 0 -24 6 -24
15 0 21 29 31 51 17 15 -10 17 -9 13 3 -9 22 -61 19 -74 -4z m63 -53 c7 -21
-4 -38 -23 -38 -23 0 -34 16 -26 35 7 18 43 20 49 3z"/>
<path d="M684 679 c-3 -6 1 -10 12 -9 11 1 25 2 32 1 15 -1 16 -41 1 -41 -6 0
-9 -6 -6 -12 2 -7 0 -23 -4 -35 -5 -13 -5 -23 0 -23 5 0 12 11 15 25 4 14 11
25 16 25 12 0 0 63 -14 72 -16 11 -44 10 -52 -3z"/>
<path d="M622 668 c-16 -16 -15 -29 2 -22 11 4 16 -6 19 -43 3 -44 4 -43 5 15
2 62 -3 73 -26 50z"/>
<path d="M980 659 c-8 -15 -9 -19 -1 -15 7 5 11 -8 11 -38 0 -25 5 -46 10 -46
13 0 13 107 1 115 -6 3 -15 -4 -21 -16z"/>
<path d="M1067 673 c-4 -3 -7 -17 -7 -29 0 -13 -4 -26 -10 -29 -17 -11 -11
-44 11 -56 46 -24 85 21 60 69 -5 9 -12 25 -15 35 -5 17 -27 23 -39 10z m33
-18 c0 -8 -7 -15 -15 -15 -8 0 -15 7 -15 15 0 8 7 15 15 15 8 0 15 -7 15 -15z
m17 -51 c3 -8 -1 -22 -9 -31 -12 -12 -20 -13 -37 -4 -21 12 -27 31 -14 44 12
13 54 7 60 -9z"/>
<path d="M1442 681 c-8 -5 -12 -21 -10 -37 3 -25 7 -29 36 -29 35 0 41 -19 10
-39 -13 -8 -22 -6 -37 8 -22 20 -30 9 -9 -12 18 -18 56 -14 68 7 17 33 12 89
-9 101 -24 12 -32 12 -49 1z m47 -15 c17 -20 2 -48 -23 -44 -24 3 -34 37 -14
49 18 12 24 11 37 -5z"/>
<path d="M1362 668 c-17 -17 -15 -33 2 -18 13 10 15 3 19 -42 l3 -53 2 63 c2
62 -3 73 -26 50z"/>
<path d="M1743 673 c-7 -2 -13 -11 -13 -20 0 -12 3 -12 16 2 14 14 19 14 31 2
17 -17 8 -41 -23 -62 -37 -24 -31 -45 14 -44 l37 2 -33 6 -34 6 31 29 c33 32
39 54 19 74 -13 13 -24 14 -45 5z"/>
<path d="M1837 652 c-20 -22 -22 -61 -4 -86 19 -25 58 -17 77 17 13 24 13 30
0 55 -19 33 -50 39 -73 14z m51 -4 c7 -7 12 -27 12 -44 0 -25 -5 -34 -22 -40
-28 -9 -51 21 -43 56 10 37 32 49 53 28z"/>
<path d="M1749 413 c-13 -16 -12 -17 3 -5 19 15 38 9 38 -12 0 -7 -11 -23 -25
-36 -33 -31 -32 -40 8 -39 23 1 26 3 10 6 -28 5 -29 14 -2 31 14 9 19 21 17
40 -4 32 -29 40 -49 15z"/>
<path d="M1836 391 c-21 -39 -20 -41 8 -41 15 0 26 -7 29 -17 4 -17 5 -17 6 0
0 9 7 17 14 17 8 0 9 2 1 8 -7 4 -14 16 -17 27 -4 18 -5 18 -6 -2 -1 -16 -7
-23 -22 -23 -21 0 -21 1 -4 26 9 14 14 28 12 31 -3 3 -13 -9 -21 -26z"/>
<path d="M632 428 c-6 -6 -12 -17 -12 -22 0 -6 7 -3 15 8 16 21 45 15 45 -8 0
-9 -13 -29 -30 -46 -39 -40 -38 -50 8 -49 30 2 32 3 10 6 -35 5 -35 13 -3 43
31 29 31 73 0 78 -11 1 -26 -3 -33 -10z"/>
<path d="M737 423 c-11 -10 -8 -25 2 -18 6 3 12 -17 14 -47 l3 -53 2 63 c2 57
-4 73 -21 55z"/>
<path d="M1015 403 c-5 -15 -4 -16 6 -5 7 6 19 12 26 12 18 0 16 -35 -3 -50
-8 -8 -20 -22 -25 -32 -9 -16 -6 -18 28 -17 36 1 36 2 9 8 -27 5 -28 7 -12 20
42 35 42 81 1 81 -13 0 -26 -8 -30 -17z"/>
<path d="M1107 414 c-4 -4 -7 -12 -7 -18 0 -6 5 -5 12 2 7 7 18 12 25 12 22 0
15 -35 -12 -60 -33 -31 -32 -40 8 -39 23 1 26 3 10 6 -29 5 -29 19 -2 33 27
15 23 64 -6 68 -12 2 -24 0 -28 -4z"/>
<path d="M1382 418 c-7 -7 -12 -17 -12 -22 0 -6 4 -5 9 3 9 15 41 8 41 -8 0
-6 -11 -22 -25 -37 -33 -36 -32 -44 8 -43 l32 1 -28 7 -29 6 26 24 c14 14 26
33 26 42 0 24 -33 42 -48 27z"/>
<path d="M1467 414 c-4 -4 -7 -14 -7 -23 1 -14 2 -13 11 2 12 20 39 23 39 4 0
-7 -5 -18 -12 -25 -9 -9 -9 -12 0 -12 7 0 12 -9 12 -20 0 -25 -35 -27 -50 -2
-10 15 -10 15 -8 -3 4 -26 62 -34 72 -10 3 9 3 22 -1 28 -4 6 -7 23 -7 37 -1
17 -7 26 -21 28 -12 2 -24 0 -28 -4z"/>
</g>
</svg>
